<svg xmlns="http://www.w3.org/2000/svg" shape-rendering="geometricPrecision" text-rendering="geometricPrecision" image-rendering="optimizeQuality" fill-rule="evenodd" clip-rule="evenodd" viewBox="0 0 511.935 193.189"><path fill="#fff" d="M160.363 23.31h269.866c34.911 0 57.218 18.917 66.949 43.131 3.822 9.51 5.733 19.83 5.733 30.146 0 10.316-1.912 20.636-5.734 30.147-9.733 24.22-32.043 43.144-66.948 43.144H160.393a97.411 97.411 0 0020.485-24.85c12.406-21.488 16.62-47.693 9.701-73.514-5.214-19.457-16.012-35.946-30.216-48.204z"/><path fill="#4D4D4D" fill-rule="nonzero" d="M147.029 14.251h283.2c39.2 0 64.319 21.416 75.335 48.828 4.247 10.568 6.371 22.038 6.37 33.508 0 11.47-2.124 22.94-6.371 33.509-11.018 27.418-36.139 48.84-75.334 48.84H148.113a96.393 96.393 0 0012.28-9.058h269.836c34.905 0 57.215-18.924 66.948-43.144 3.822-9.511 5.734-19.831 5.734-30.147 0-10.316-1.911-20.636-5.733-30.146-9.731-24.214-32.038-43.131-66.949-43.131H159.363a97.659 97.659 0 00-12.334-9.059z"/><path fill="#1A1A1A" fill-rule="nonzero" d="M228.23 122.486V74.632h29.885v8.953h-17.906v11.4h13.59v8.888h-13.59v18.613H228.23zm49.078.516c-3.307 0-6.108-.516-8.416-1.535-2.308-1.02-4.165-2.416-5.561-4.197-1.395-1.782-2.404-3.833-3.027-6.141-.622-2.308-.923-4.744-.902-7.321.065-3.821.892-7.042 2.48-9.661 1.589-2.619 3.768-4.605 6.538-5.957 2.769-1.353 5.946-2.029 9.532-2.029 4.422 0 7.954.88 10.584 2.64 2.63 1.761 4.509 4.09 5.646 6.989 1.138 2.898 1.675 6.065 1.611 9.5-.043 3.843-.848 7.074-2.426 9.704-1.578 2.63-3.758 4.626-6.527 5.979-2.769 1.352-5.947 2.029-9.532 2.029zm.257-8.051c2.297 0 3.897-.848 4.788-2.534.891-1.685 1.331-4.229 1.331-7.643 0-1.932-.183-3.703-.547-5.303-.365-1.599-.977-2.876-1.836-3.832-.859-.955-2.04-1.427-3.543-1.427-2.34 0-3.961.848-4.873 2.544-.912 1.696-1.374 4.175-1.374 7.439 0 1.975.193 3.778.569 5.41.376 1.632.998 2.931 1.878 3.897.881.966 2.083 1.449 3.607 1.449zm24.475 7.535V70.188h11.658v52.298H302.04zm20.288 0V70.188h11.658v52.298h-11.658zm35.811.516c-3.307 0-6.108-.516-8.416-1.535-2.308-1.02-4.165-2.416-5.561-4.197-1.395-1.782-2.405-3.833-3.027-6.141-.623-2.308-.923-4.744-.902-7.321.065-3.821.891-7.042 2.48-9.661 1.589-2.619 3.768-4.605 6.537-5.957 2.77-1.353 5.947-2.029 9.533-2.029 4.422 0 7.954.88 10.584 2.64 2.63 1.761 4.508 4.09 5.646 6.989 1.138 2.898 1.675 6.065 1.611 9.5-.044 3.843-.849 7.074-2.427 9.704-1.578 2.63-3.757 4.626-6.526 5.979-2.77 1.352-5.947 2.029-9.532 2.029zm.257-8.051c2.297 0 3.897-.848 4.788-2.534.891-1.685 1.331-4.229 1.331-7.643 0-1.932-.183-3.703-.548-5.303-.365-1.599-.977-2.876-1.835-3.832-.859-.955-2.04-1.427-3.543-1.427-2.34 0-3.961.848-4.873 2.544-.913 1.696-1.374 4.175-1.374 7.439 0 1.975.193 3.778.569 5.41.375 1.632.998 2.931 1.878 3.897.88.966 2.083 1.449 3.607 1.449zm30.207 8.051l-10.756-36.39h11.336l3.285 14.491 3.091 14.943h-2.447l3.478-14.943 4.25-14.491h10.435l4.25 14.491 3.221 14.878h-2.319l3.027-14.878 3.414-14.491h10.82l-11.335 36.39h-10.177l-5.217-17.648-2.318-11.464h1.932l-2.383 11.464-5.024 17.648h-10.563z"/><path fill="#fff" fill-rule="nonzero" d="M72.012 3.496c25.674-6.878 51.73-2.687 73.096 9.647 21.387 12.347 38.058 32.829 44.94 58.513 6.878 25.674 2.687 51.73-9.647 73.096-12.347 21.387-32.829 38.058-58.513 44.94-25.675 6.879-51.731 2.688-73.097-9.646-21.387-12.347-38.058-32.829-44.939-58.514-6.879-25.674-2.688-51.73 9.647-73.096 12.347-21.387 32.828-38.058 58.513-44.94z"/><path fill="#0866FF" fill-rule="nonzero" d="M193.899 96.95c0-53.544-43.406-96.95-96.95-96.95C43.406 0 0 43.406 0 96.95c0 45.467 31.301 83.618 73.529 94.094v-64.468H53.537V96.95h19.992V84.184c0-32.999 14.933-48.294 47.33-48.294 6.142 0 16.74 1.205 21.075 2.409v26.857c-2.288-.241-6.262-.362-11.2-.362-15.897 0-22.039 6.022-22.039 21.678V96.95h31.667l-5.44 29.626h-26.227v66.613c48.004-5.798 85.204-46.672 85.204-96.239z"/></svg>