<svg xmlns="http://www.w3.org/2000/svg" shape-rendering="geometricPrecision" text-rendering="geometricPrecision" image-rendering="optimizeQuality" fill-rule="evenodd" clip-rule="evenodd" viewBox="0 0 402 511.75"><path fill="#4073C8" d="M157.119 67.196h209.897c19.242 0 34.984 15.742 34.984 34.983v374.588c0 19.241-15.742 34.983-34.984 34.983H34.984C15.742 511.75 0 496.008 0 476.767V102.179C0 83.5 14.836 68.119 33.307 67.237a24.06 24.06 0 00-1.282 7.767v381.762c0 13.344 10.917 24.26 24.26 24.26h77.871c13.344 0 24.26-10.916 24.26-24.26V75.004c0-2.729-.458-5.355-1.297-7.808z"/><path fill="#B1E4F9" d="M206.383 95.245h144.571c8.113 0 14.733 6.62 14.733 14.714v66.429c0 8.113-6.62 14.733-14.733 14.733H206.383c-8.103 0-14.723-6.62-14.723-14.733v-66.429c0-8.094 6.62-14.714 14.723-14.714z"/><path fill="#CCEDFB" d="M321.548 191.121H206.383c-8.103 0-14.723-6.62-14.723-14.733v-66.429c0-.471.023-.937.067-1.398 40.676 16.338 118.681 46.372 129.821 82.56z"/><path fill="#B1E4F9" d="M296.253 268.989c9.662 0 17.491 7.839 17.491 17.5 0 9.662-7.829 17.5-17.491 17.5-9.66 0-17.499-7.838-17.499-17.5 0-9.661 7.839-17.5 17.499-17.5zm-53.094 0c9.661 0 17.5 7.839 17.5 17.5 0 9.662-7.839 17.5-17.5 17.5s-17.491-7.838-17.491-17.5c0-9.661 7.83-17.5 17.491-17.5zm53.094 158.36c9.662 0 17.491 7.838 17.491 17.5 0 9.661-7.829 17.5-17.491 17.5-9.66 0-17.499-7.839-17.499-17.5 0-9.662 7.839-17.5 17.499-17.5zm53.086-52.784c9.662 0 17.5 7.839 17.5 17.5s-7.838 17.491-17.5 17.491c-9.661 0-17.5-7.83-17.5-17.491s7.839-17.5 17.5-17.5zm-53.086 0c9.662 0 17.491 7.839 17.491 17.5s-7.829 17.491-17.491 17.491c-9.66 0-17.499-7.83-17.499-17.491s7.839-17.5 17.499-17.5zm-53.094 0c9.661 0 17.5 7.839 17.5 17.5s-7.839 17.491-17.5 17.491-17.491-7.83-17.491-17.491 7.83-17.5 17.491-17.5zm106.18-52.783c9.662 0 17.5 7.83 17.5 17.491 0 9.66-7.838 17.499-17.5 17.499-9.661 0-17.5-7.839-17.5-17.499 0-9.661 7.839-17.491 17.5-17.491zm-53.086 0c9.662 0 17.491 7.83 17.491 17.491 0 9.66-7.829 17.499-17.491 17.499-9.66 0-17.499-7.839-17.499-17.499 0-9.661 7.839-17.491 17.499-17.491zm-53.094 0c9.661 0 17.5 7.83 17.5 17.491 0 9.66-7.839 17.499-17.5 17.499s-17.491-7.839-17.491-17.499c0-9.661 7.83-17.491 17.491-17.491zm106.18-52.793c9.662 0 17.5 7.839 17.5 17.5 0 9.662-7.838 17.5-17.5 17.5-9.661 0-17.5-7.838-17.5-17.5 0-9.661 7.839-17.5 17.5-17.5z"/><path fill="#D1EFFB" d="M297.842 269.062c8.915.804 15.902 8.302 15.902 17.427 0 5.849-2.87 11.029-7.278 14.207-8.916-.804-15.908-8.303-15.908-17.427 0-5.849 2.872-11.029 7.284-14.207zm-44.467 31.634c-8.916-.804-15.903-8.302-15.903-17.427 0-5.849 2.87-11.029 7.278-14.207 8.916.804 15.909 8.303 15.909 17.427 0 5.849-2.872 11.029-7.284 14.207zm53.091 158.359c-8.916-.804-15.908-8.302-15.908-17.427 0-5.848 2.872-11.028 7.284-14.206 8.915.804 15.902 8.301 15.902 17.427 0 5.848-2.87 11.028-7.278 14.206zm53.093-52.792c-8.919-.8-15.916-8.292-15.916-17.418 0-5.849 2.872-11.029 7.284-14.207 8.917.804 15.912 8.301 15.912 17.427 0 5.847-2.871 11.023-7.28 14.198zm-53.089 0c-8.918-.803-15.912-8.293-15.912-17.418 0-5.849 2.872-11.029 7.284-14.207 8.915.804 15.902 8.301 15.902 17.427 0 5.847-2.869 11.023-7.274 14.198zm-53.091 0c-8.918-.8-15.907-8.292-15.907-17.418 0-5.849 2.87-11.029 7.278-14.207 8.916.804 15.909 8.303 15.909 17.427 0 5.847-2.871 11.023-7.28 14.198zm106.176-52.785c-8.918-.804-15.912-8.301-15.912-17.425 0-5.848 2.871-11.023 7.28-14.199 8.919.801 15.916 8.292 15.916 17.419 0 5.848-2.872 11.027-7.284 14.205zm-53.089 0c-8.916-.804-15.908-8.302-15.908-17.425 0-5.848 2.871-11.023 7.281-14.199 8.917.802 15.905 8.292 15.905 17.419 0 5.848-2.87 11.027-7.278 14.205zm-53.091 0c-8.916-.804-15.903-8.301-15.903-17.425 0-5.848 2.869-11.023 7.275-14.199 8.917.803 15.912 8.293 15.912 17.419 0 5.848-2.872 11.027-7.284 14.205zm106.18-52.782c-8.918-.804-15.912-8.302-15.912-17.427 0-5.849 2.872-11.029 7.284-14.207 8.917.804 15.912 8.302 15.912 17.427 0 5.849-2.872 11.029-7.284 14.207z"/><path fill="#698ED5" d="M65.79 35.71h28.832V5.922c0-3.258 2.664-5.922 5.921-5.922h3.598c3.257 0 5.922 2.664 5.922 5.922V35.71h13.389c9.087 0 16.52 7.432 16.52 16.519v390.38c0 9.087-7.433 16.519-16.52 16.519H65.79c-9.087 0-16.52-7.432-16.52-16.519V52.229c0-9.087 7.433-16.519 16.52-16.519z"/></svg>